<svg xmlns="http://www.w3.org/2000/svg" viewBox="0 0 64 64" role="img" aria-label="Robert J. Spencer">
  <rect width="64" height="64" rx="14" fill="#000000" stroke="rgba(255,255,255,0.12)" stroke-width="1"/>
  <g fill="#ffffff" transform="translate(32,32) scale(0.013354,-0.013354) translate(-1827.500,-742.000)">
    <path d="M180 0V1490H690Q864 1490 976.5 1430.5Q1089 1371 1143.5 1267.0Q1198 1163 1198 1030Q1198 897 1143.5 795.0Q1089 693 977.0 635.5Q865 578 691 578H286V747H682Q800 747 871.5 781.5Q943 816 976.0 879.5Q1009 943 1009 1030Q1009 1119 976.0 1184.5Q943 1250 871.0 1286.5Q799 1323 680 1323H370V0ZM1036 0 676 671H890L1256 0Z"/>
    <path transform="translate(1213.000 0)" d="M545 -20Q348 -20 224.0 96.0Q100 212 100 426V506H290V426Q290 290 360.0 218.5Q430 147 545 147Q659 147 729.0 218.5Q799 290 799 426V1490H989V426Q989 212 865.5 96.0Q742 -20 545 -20Z"/>
    <path transform="translate(2277.000 0)" d="M657 -26Q496 -26 377.5 26.0Q259 78 192.0 171.5Q125 265 116 390H311Q319 306 368.0 251.5Q417 197 493.5 170.5Q570 144 657 144Q758 144 838.5 177.0Q919 210 966.0 270.0Q1013 330 1013 409Q1013 481 972.5 526.0Q932 571 865.0 600.0Q798 629 718 651L538 702Q358 753 258.0 848.0Q158 943 158 1091Q158 1217 226.0 1311.5Q294 1406 410.0 1458.0Q526 1510 670 1510Q817 1510 930.0 1458.0Q1043 1406 1108.5 1316.5Q1174 1227 1178 1114H992Q979 1223 888.0 1282.5Q797 1342 664 1342Q568 1342 495.5 1310.5Q423 1279 383.0 1224.5Q343 1170 343 1100Q343 1022 391.5 974.5Q440 927 506.5 900.5Q573 874 627 859L776 818Q836 802 908.5 774.0Q981 746 1047.0 699.5Q1113 653 1155.5 581.5Q1198 510 1198 406Q1198 284 1134.5 186.0Q1071 88 950.0 31.0Q829 -26 657 -26Z"/>
  </g>
</svg>
